<?xml version="1.0" standalone="no"?>
<!DOCTYPE svg PUBLIC "-//W3C//DTD SVG 20010904//EN"
 "http://www.w3.org/TR/2001/REC-SVG-20010904/DTD/svg10.dtd">
<svg version="1.0" xmlns="http://www.w3.org/2000/svg"
 width="250.000000pt" height="250.000000pt" viewBox="0 0 250.000000 250.000000"
 preserveAspectRatio="xMidYMid meet">

<g transform="translate(0.000000,250.000000) scale(0.100000,-0.100000)"
fill="#000000" stroke="none">
<path d="M1159 2240 c-376 -44 -690 -320 -786 -689 -19 -75 -25 -122 -25 -211
0 -147 20 -242 82 -391 66 -156 76 -218 61 -411 -6 -84 -11 -172 -11 -195 0
-54 32 -94 76 -95 17 -1 99 27 182 60 203 83 279 101 492 112 191 9 280 27
394 79 449 204 657 725 471 1182 -61 150 -185 305 -318 397 -93 64 -153 94
-253 125 -68 22 -245 50 -286 46 -7 -1 -43 -5 -79 -9z m154 -411 l27 -29 0
-191 c0 -210 -6 -237 -59 -259 -39 -16 -86 -5 -111 27 -19 24 -20 40 -20 225
0 123 4 207 11 219 14 27 67 50 99 43 14 -2 37 -18 53 -35z m-311 -206 c10
-11 21 -35 24 -55 5 -30 0 -47 -32 -99 -34 -54 -39 -71 -42 -135 -5 -92 16
-157 69 -218 114 -130 309 -136 432 -13 98 98 113 267 32 376 -36 50 -34 103
5 143 27 27 36 30 71 25 51 -7 69 -23 109 -99 43 -80 60 -147 60 -239 0 -135
-47 -248 -144 -345 -155 -155 -374 -188 -571 -86 -185 97 -290 306 -255 510
14 88 68 200 112 238 27 21 39 25 71 21 22 -3 48 -14 59 -24z"/>
</g>
</svg>
